<svg id="visual" viewBox="0 0 960 540" width="960" height="540" xmlns="http://www.w3.org/2000/svg" xmlns:xlink="http://www.w3.org/1999/xlink" version="1.1"><rect x="0" y="0" width="960" height="540" fill="#b7c5d0"></rect><defs><linearGradient id="grad1_0" x1="43.8%" y1="100%" x2="100%" y2="0%"><stop offset="14.444444444444446%" stop-color="#b7c5d0" stop-opacity="1"></stop><stop offset="85.55555555555554%" stop-color="#b7c5d0" stop-opacity="1"></stop></linearGradient></defs><defs><linearGradient id="grad2_0" x1="0%" y1="100%" x2="56.3%" y2="0%"><stop offset="14.444444444444446%" stop-color="#b7c5d0" stop-opacity="1"></stop><stop offset="85.55555555555554%" stop-color="#b7c5d0" stop-opacity="1"></stop></linearGradient></defs><g transform="translate(960, 540)"><path d="M-486 0C-478.6 -40 -471.2 -80 -464.6 -124.5C-458 -169 -452.3 -218.1 -420.9 -243C-389.5 -267.9 -332.3 -268.7 -301.9 -301.9C-271.5 -335.2 -267.9 -401 -235.5 -407.9C-203.1 -414.8 -142.1 -362.9 -98.1 -366.1C-54.1 -369.3 -27 -427.6 0 -486L0 0Z" fill="#0955c8"></path></g><g transform="translate(0, 0)"><path d="M486 0C448 35.5 410 71.1 387.3 103.8C364.7 136.5 357.3 166.4 345.5 199.5C333.8 232.6 317.5 269.1 292.7 292.7C268 316.4 234.7 327.3 207.5 359.4C180.3 391.5 159.3 444.8 125.8 469.4C92.2 494.1 46.1 490 0 486L0 0Z" fill="#0955c8"></path></g></svg>